<?xml version="1.0" encoding="utf-8"?>
<!-- Generator: Adobe Illustrator 16.0.0, SVG Export Plug-In . SVG Version: 6.00 Build 0)  -->
<!DOCTYPE svg PUBLIC "-//W3C//DTD SVG 1.1//EN" "http://www.w3.org/Graphics/SVG/1.1/DTD/svg11.dtd">
<svg version="1.1" id="Layer_1" xmlns="http://www.w3.org/2000/svg" xmlns:xlink="http://www.w3.org/1999/xlink" x="0px" y="0px"
	 width="164.406px" height="151.695px" viewBox="0 0 164.406 151.695" enable-background="new 0 0 164.406 151.695"
	 xml:space="preserve">
<g>
	<g>
		<animateTransform begin="click" attributeName="transform" type="rotate" dur="1s" from="0 82 82" to="720 82 82"/>
		<path d="M146.414,83.262c0.779-0.039,1.416-0.708,1.416-1.487v-9.345c0-0.78-0.637-1.449-1.416-1.488l-8.838-0.439
			c-0.779-0.039-1.518-0.7-1.643-1.469l-0.938-4.722c-0.18-0.758,0.25-1.652,0.955-1.985l7.998-3.787
			c0.705-0.333,1.037-1.196,0.739-1.916l-3.576-8.631c-0.298-0.72-1.143-1.095-1.877-0.833l-8.34,2.977
			c-0.734,0.262-1.671-0.066-2.081-0.729l-2.662-3.977c-0.458-0.631-0.404-1.62,0.119-2.198l5.947-6.569
			c0.523-0.578,0.5-1.502-0.051-2.053l-6.605-6.605c-0.551-0.551-1.475-0.574-2.053-0.051l-6.568,5.948
			c-0.578,0.523-1.568,0.578-2.2,0.122l-3.996-2.676c-0.663-0.41-0.99-1.346-0.729-2.08l2.978-8.34
			c0.262-0.734-0.112-1.579-0.833-1.877l-8.642-3.576c-0.721-0.298-1.582,0.035-1.916,0.739l-3.787,7.999
			c-0.334,0.704-1.228,1.134-1.986,0.956l-4.69-0.928c-0.77-0.125-1.431-0.864-1.47-1.643l-0.439-8.839
			c-0.039-0.778-0.708-1.416-1.487-1.416h-9.345c-0.78,0-1.449,0.637-1.488,1.416l-0.439,8.839c-0.039,0.778-0.7,1.517-1.469,1.642
			l-4.722,0.937c-0.758,0.18-1.652-0.25-1.985-0.954l-3.787-7.999c-0.333-0.704-1.196-1.037-1.916-0.738l-8.631,3.575
			c-0.72,0.298-1.095,1.143-0.833,1.877l2.977,8.34c0.262,0.734-0.066,1.671-0.729,2.081l-3.978,2.662
			c-0.631,0.458-1.62,0.404-2.198-0.119l-6.568-5.948c-0.578-0.523-1.502-0.5-2.053,0.051l-6.605,6.605
			c-0.551,0.551-0.574,1.475-0.051,2.053l5.947,6.569c0.523,0.578,0.578,1.568,0.122,2.2l-2.675,3.995
			c-0.41,0.663-1.346,0.991-2.081,0.729l-8.34-2.977c-0.734-0.262-1.579,0.113-1.877,0.833l-3.576,8.641
			c-0.298,0.72,0.035,1.583,0.739,1.916l7.998,3.787c0.704,0.333,1.134,1.227,0.956,1.986l-0.927,4.692
			c-0.125,0.77-0.864,1.431-1.643,1.469l-8.839,0.439c-0.778,0.039-1.416,0.708-1.416,1.488v9.345c0,0.779,0.637,1.448,1.416,1.487
			l8.839,0.439c0.778,0.039,1.518,0.7,1.642,1.47l0.937,4.712c0.18,0.759-0.249,1.652-0.953,1.986l-8,3.795
			c-0.704,0.334-1.036,1.196-0.738,1.917l3.575,8.631c0.298,0.721,1.143,1.095,1.877,0.833l8.34-2.977
			c0.734-0.262,1.671,0.065,2.081,0.729l2.662,3.978c0.458,0.631,0.404,1.62-0.119,2.198l-5.947,6.568
			c-0.523,0.578-0.5,1.502,0.051,2.053l6.605,6.605c0.551,0.551,1.475,0.574,2.053,0.051l6.568-5.947
			c0.578-0.523,1.568-0.578,2.2-0.122l3.996,2.676c0.663,0.41,0.991,1.346,0.729,2.08l-2.978,8.34
			c-0.262,0.734,0.113,1.579,0.833,1.877l8.642,3.576c0.72,0.298,1.583-0.034,1.916-0.739l3.787-7.998
			c0.333-0.705,1.227-1.135,1.986-0.956l4.691,0.928c0.77,0.125,1.431,0.864,1.469,1.644l0.439,8.838
			c0.039,0.779,0.708,1.416,1.488,1.416h9.345c0.779,0,1.448-0.637,1.487-1.416l0.439-8.838c0.039-0.779,0.7-1.518,1.47-1.643
			l4.722-0.938c0.758-0.179,1.652,0.25,1.985,0.955l3.787,7.998c0.333,0.705,1.195,1.037,1.916,0.739l8.631-3.576
			c0.721-0.298,1.095-1.143,0.833-1.877l-2.977-8.34c-0.262-0.734,0.065-1.671,0.729-2.081l3.978-2.662
			c0.631-0.458,1.62-0.404,2.198,0.119l6.568,5.947c0.578,0.523,1.502,0.5,2.053-0.051l6.605-6.605
			c0.551-0.551,0.574-1.475,0.051-2.053l-5.947-6.568c-0.523-0.578-0.578-1.568-0.122-2.2l2.676-3.995
			c0.409-0.663,1.346-0.99,2.08-0.729l8.34,2.977c0.734,0.262,1.579-0.112,1.877-0.833l3.576-8.641
			c0.298-0.721-0.034-1.583-0.739-1.916l-7.997-3.787c-0.705-0.333-1.135-1.228-0.956-1.986l0.927-4.691
			c0.125-0.77,0.864-1.431,1.644-1.47L146.414,83.262z M83.07,117.352c-22.229,0-40.25-18.021-40.25-40.25s18.021-40.25,40.25-40.25
			s40.25,18.021,40.25,40.25S105.3,117.352,83.07,117.352z"/>
	</g>
	<circle cx="83.07" cy="77.102" r="6"/>
</g>

</svg>
